P3
10 10
255
74 129 183 52 116 178 45 113 178 45 114 179 41 115 180 62 120 168 74 118 155 
43 113 182 58 112 158 53 115 176 58 122 183 26 106 175 19 106 175 49 118 183 
91 141 200 128 158 184 136 125 103 82 122 157 135 128 110 33 108 176 
70 135 189 45 120 187 44 119 187 32 116 189 30 118 192 84 143 187 160 131 91 
145 121 87 122 120 99 47 125 191 167 188 217 158 184 217 135 170 212 
105 152 206 88 148 211 115 159 194 165 140 100 153 129 91 114 108 92 
64 139 204 106 156 207 130 168 213 121 168 212 120 168 216 136 176 225 
157 179 200 155 137 99 141 127 92 132 125 107 88 152 213 139 174 212 
119 163 210 100 157 212 101 161 215 95 159 221 132 171 202 157 131 94 
116 99 73 127 119 106 112 168 217 176 197 216 133 175 213 121 172 219 
119 171 218 117 174 227 152 182 206 160 136 102 141 126 95 127 120 102 
136 181 223 157 184 213 162 185 216 151 186 224 150 188 225 145 189 234 
179 204 224 186 166 133 160 143 117 151 142 125 160 194 229 150 149 101 
151 150 93 156 155 91 157 156 91 157 158 100 170 165 101 166 151 70 149 135 60 
143 132 68 145 154 123 149 138 56 148 138 43 154 139 44 157 144 48 158 146 48 
159 146 50 158 149 54 157 147 52 143 136 48 145 133 57 
