P3
5 5
255
22 112 188 24 112 186 22 113 186 22 113 184 20 113 183 22 113 186 21 113 186 
20 112 187 167 136 89 23 114 187 20 112 185 23 110 187 25 111 184 168 135 92 
23 111 185 22 113 184 21 112 185 22 112 188 168 136 87 20 114 188 77 161 76 
74 162 76 74 162 75 77 162 81 77 163 76 
